<svg width="48" height="48" viewBox="0 0 48 48" fill="none" xmlns="http://www.w3.org/2000/svg">
<mask id="path-1-inside-1_4012_1492" fill="white">
<path d="M0 8C0 3.58172 3.58172 0 8 0H40C44.4183 0 48 3.58172 48 8V40C48 44.4183 44.4183 48 40 48H8C3.58172 48 0 44.4183 0 40V8Z"/>
</mask>
<path d="M8 1H40V-1H8V1ZM47 8V40H49V8H47ZM40 47H8V49H40V47ZM1 40V8H-1V40H1ZM8 47C4.13401 47 1 43.866 1 40H-1C-1 44.9706 3.02944 49 8 49V47ZM47 40C47 43.866 43.866 47 40 47V49C44.9706 49 49 44.9706 49 40H47ZM40 1C43.866 1 47 4.13401 47 8H49C49 3.02944 44.9706 -1 40 -1V1ZM8 -1C3.02944 -1 -1 3.02944 -1 8H1C1 4.13401 4.13401 1 8 1V-1Z" fill="#111827" mask="url(#path-1-inside-1_4012_1492)"/>
<path d="M29.6001 23.1999V24.7999C29.6001 25.2415 29.2417 25.5999 28.8001 25.5999H21.6001V22.3999H28.8001C29.2417 22.3999 29.6001 22.7583 29.6001 23.1999Z" fill="#111827" stroke="#111827" stroke-width="2" stroke-linecap="round" stroke-linejoin="round"/>
<path d="M23.2 20.4622V27.5374C23.2 27.8782 22.8016 28.063 22.5416 27.843L18.3608 24.3054C18.172 24.1454 18.172 23.8542 18.3608 23.695L22.5416 20.1574C22.8016 19.9374 23.2 20.1214 23.2 20.4622Z" fill="#111827" stroke="#111827" stroke-width="2" stroke-linecap="round" stroke-linejoin="round"/>
</svg>
