<svg width="130" height="68" viewBox="0 0 130 68" fill="none" xmlns="http://www.w3.org/2000/svg">
<g filter="url(#filter0_d_4012_1433)">
<path d="M2 9C2 4.58172 5.58172 1 10 1H120C124.418 1 128 4.58172 128 9V57C128 61.4183 124.418 65 120 65H10C5.58172 65 2 61.4183 2 57V9Z" fill="#F3F4F6" shape-rendering="crispEdges"/>
<path d="M23.0785 39.5L18.4525 26.9H20.7745L24.3925 37.286L28.0465 26.9H30.3325L25.7065 39.5H23.0785ZM31.9405 39.5V30.482H34.1005V39.5H31.9405ZM33.0205 29.024C32.6245 29.024 32.2945 28.904 32.0305 28.664C31.7785 28.412 31.6525 28.106 31.6525 27.746C31.6525 27.374 31.7785 27.074 32.0305 26.846C32.2945 26.606 32.6245 26.486 33.0205 26.486C33.4165 26.486 33.7405 26.606 33.9925 26.846C34.2565 27.074 34.3885 27.374 34.3885 27.746C34.3885 28.106 34.2565 28.412 33.9925 28.664C33.7405 28.904 33.4165 29.024 33.0205 29.024ZM40.827 39.716C39.939 39.716 39.147 39.524 38.451 39.14C37.767 38.744 37.227 38.198 36.831 37.502C36.447 36.794 36.255 35.978 36.255 35.054C36.255 34.106 36.447 33.278 36.831 32.57C37.215 31.85 37.749 31.286 38.433 30.878C39.129 30.47 39.933 30.266 40.845 30.266C41.733 30.266 42.507 30.464 43.167 30.86C43.827 31.256 44.337 31.784 44.697 32.444C45.069 33.104 45.255 33.842 45.255 34.658C45.255 34.778 45.249 34.91 45.237 35.054C45.237 35.198 45.231 35.354 45.219 35.522H37.821V34.118H43.077C43.041 33.482 42.813 32.978 42.393 32.606C41.985 32.222 41.469 32.03 40.845 32.03C40.401 32.03 39.987 32.132 39.603 32.336C39.231 32.54 38.931 32.84 38.703 33.236C38.487 33.632 38.379 34.13 38.379 34.73V35.252C38.379 35.816 38.487 36.302 38.703 36.71C38.919 37.106 39.207 37.412 39.567 37.628C39.939 37.832 40.353 37.934 40.809 37.934C41.313 37.934 41.727 37.826 42.051 37.61C42.387 37.394 42.639 37.106 42.807 36.746H44.985C44.829 37.298 44.553 37.802 44.157 38.258C43.773 38.702 43.299 39.056 42.735 39.32C42.183 39.584 41.547 39.716 40.827 39.716ZM48.6618 39.5L46.0158 30.482H48.1398L50.0118 37.988L49.5618 37.97L51.6678 30.482H54.0618L56.1858 37.97H55.7178L57.5718 30.482H59.7318L57.0858 39.5H54.8538L52.6218 31.76H53.1258L50.8938 39.5H48.6618ZM68.6773 39.716C67.9333 39.716 67.3153 39.596 66.8233 39.356C66.3313 39.104 65.9653 38.768 65.7253 38.348C65.4853 37.928 65.3653 37.472 65.3653 36.98C65.3653 36.404 65.5093 35.912 65.7973 35.504C66.0973 35.084 66.5353 34.76 67.1113 34.532C67.6873 34.292 68.3953 34.172 69.2353 34.172H71.5213C71.5213 33.692 71.4553 33.296 71.3233 32.984C71.1913 32.672 70.9813 32.438 70.6933 32.282C70.4173 32.126 70.0693 32.048 69.6493 32.048C69.1453 32.048 68.7133 32.162 68.3533 32.39C68.0053 32.618 67.7953 32.954 67.7233 33.398H65.5993C65.6593 32.75 65.8753 32.198 66.2473 31.742C66.6193 31.274 67.0993 30.914 67.6873 30.662C68.2873 30.398 68.9413 30.266 69.6493 30.266C70.5013 30.266 71.2273 30.416 71.8273 30.716C72.4273 31.004 72.8833 31.424 73.1953 31.976C73.5193 32.516 73.6813 33.17 73.6813 33.938V39.5H71.8453L71.6293 38.06C71.5093 38.288 71.3533 38.504 71.1613 38.708C70.9813 38.912 70.7713 39.092 70.5313 39.248C70.2913 39.392 70.0153 39.506 69.7033 39.59C69.4033 39.674 69.0613 39.716 68.6773 39.716ZM69.1633 38.006C69.5113 38.006 69.8233 37.946 70.0993 37.826C70.3753 37.694 70.6093 37.514 70.8013 37.286C70.9933 37.058 71.1433 36.8 71.2513 36.512C71.3593 36.212 71.4313 35.906 71.4673 35.594V35.558H69.4693C69.0373 35.558 68.6833 35.612 68.4073 35.72C68.1433 35.828 67.9453 35.978 67.8133 36.17C67.6933 36.35 67.6333 36.566 67.6333 36.818C67.6333 37.07 67.6933 37.286 67.8133 37.466C67.9453 37.646 68.1253 37.784 68.3533 37.88C68.5813 37.964 68.8513 38.006 69.1633 38.006ZM75.954 39.5V26.54H78.114V39.5H75.954ZM80.5068 39.5V26.54H82.6668V39.5H80.5068Z" fill="#111827"/>
<path d="M95 33H109" stroke="#4B5563" stroke-width="2" stroke-linecap="round" stroke-linejoin="round"/>
<path d="M104 38L109 33L104 28" stroke="#4B5563" stroke-width="2" stroke-linecap="round" stroke-linejoin="round"/>
</g>
<defs>
<filter id="filter0_d_4012_1433" x="0" y="0" width="130" height="68" filterUnits="userSpaceOnUse" color-interpolation-filters="sRGB">
<feFlood flood-opacity="0" result="BackgroundImageFix"/>
<feColorMatrix in="SourceAlpha" type="matrix" values="0 0 0 0 0 0 0 0 0 0 0 0 0 0 0 0 0 0 127 0" result="hardAlpha"/>
<feOffset dy="1"/>
<feGaussianBlur stdDeviation="1"/>
<feComposite in2="hardAlpha" operator="out"/>
<feColorMatrix type="matrix" values="0 0 0 0 0 0 0 0 0 0 0 0 0 0 0 0 0 0 0.05 0"/>
<feBlend mode="normal" in2="BackgroundImageFix" result="effect1_dropShadow_4012_1433"/>
<feBlend mode="normal" in="SourceGraphic" in2="effect1_dropShadow_4012_1433" result="shape"/>
</filter>
</defs>
</svg>
