<svg width="846" height="320" viewBox="0 0 846 320" fill="none" xmlns="http://www.w3.org/2000/svg">
<mask id="mask0_4012_1516" style="mask-type:alpha" maskUnits="userSpaceOnUse" x="0" y="0" width="846" height="320">
<rect x="0.5" y="0.5" width="845" height="319" fill="#D9D9D9" stroke="black"/>
</mask>
<g mask="url(#mask0_4012_1516)">
<path d="M0 12C0 5.37259 5.37258 0 12 0H834C840.627 0 846 5.37258 846 12V308C846 314.627 840.627 320 834 320H12C5.3726 320 0 314.627 0 308V12Z" fill="url(#paint0_linear_4012_1516)"/>
<path opacity="0.6" d="M176.87 184.007C179.407 184.007 181.464 182.323 181.464 180.246C181.464 178.168 179.407 176.484 176.87 176.484C174.332 176.484 172.275 178.168 172.275 180.246C172.275 182.323 174.332 184.007 176.87 184.007Z" fill="#F9FAFB"/>
<path opacity="0.05" fill-rule="evenodd" clip-rule="evenodd" d="M106.736 278.643C47.6458 306.574 27.6968 368.854 62.1783 417.75C96.6598 466.647 172.514 483.643 231.604 455.712C290.694 427.781 310.643 365.501 276.162 316.605C241.68 267.708 165.826 250.712 106.736 278.643ZM18.9493 438.184C-29.4641 369.532 -1.45487 282.087 81.5097 242.872C164.474 203.656 270.977 227.519 319.391 296.171C367.804 364.823 339.795 452.268 256.83 491.483C173.866 530.699 67.3627 506.836 18.9493 438.184Z" fill="url(#paint1_linear_4012_1516)"/>
<path fill-rule="evenodd" clip-rule="evenodd" d="M632.401 217.958L634.431 231.495C634.528 232.15 634.85 232.745 635.366 233.221C635.882 233.697 636.526 233.994 637.236 234.084L651.901 235.958L637.236 237.832C636.526 237.922 635.882 238.219 635.366 238.695C634.85 239.171 634.528 239.766 634.431 240.421L632.401 253.958L630.37 240.421C630.274 239.766 629.951 239.171 629.435 238.695C628.92 238.219 628.275 237.922 627.566 237.832L612.9 235.958L627.566 234.084C628.275 233.994 628.92 233.697 629.435 233.221C629.951 232.745 630.274 232.15 630.37 231.495L632.401 217.958Z" fill="#F9FAFB"/>
<path opacity="0.1" d="M916.068 66.9119C916.068 155.098 843.727 226.926 754.068 226.926C664.409 226.926 592.068 155.098 592.068 66.9119C592.068 -21.2739 664.409 -93.1025 754.068 -93.1025C843.727 -93.1025 916.068 -21.2739 916.068 66.9119Z" fill="black" stroke="black" stroke-width="36"/>
</g>
<defs>
<linearGradient id="paint0_linear_4012_1516" x1="8.59241e-07" y1="12.093" x2="703.395" y2="496.063" gradientUnits="userSpaceOnUse">
<stop stop-color="#030712"/>
<stop offset="1" stop-color="#374151"/>
</linearGradient>
<linearGradient id="paint1_linear_4012_1516" x1="94.1227" y1="260.757" x2="203.766" y2="492.718" gradientUnits="userSpaceOnUse">
<stop stop-color="white"/>
<stop offset="1" stop-color="white" stop-opacity="0"/>
</linearGradient>
</defs>
</svg>
