<svg width="107" height="28" viewBox="0 0 107 28" fill="none" xmlns="http://www.w3.org/2000/svg">
<g clip-path="url(#clip0_4295_372)">
<path fill-rule="evenodd" clip-rule="evenodd" d="M10.3329 17.0779H15.7852L23.7041 0H18.441L14.343 10.2362H14.2682L14.2111 0H9.4799L5.47425 10.0911H5.43467L5.22362 0H0L1.25314 17.0779H6.68781L10.201 7.95854H10.2758L10.3329 17.0779ZM36.9567 0H23.8668L20.9692 17.0779H34.2921L35.0352 12.6853H26.5754L26.9315 10.5747H34.6482L35.3386 6.50314H27.6219L27.9912 4.3706H36.2136L36.9567 0ZM38.0339 0H42.9146L40.7513 12.6853H47.7425L46.9994 17.0779H35.1275L38.0339 0ZM45.7814 4.3706H50.1036L47.9403 17.0559H50.9736L49.1099 28L57.6269 12.4303H53.5087L54.8832 4.3706H59.223L59.9661 0H46.5245L45.7814 4.3706ZM58.7877 12.87L61.039 0.118727H106.359L99.3895 12.87H58.7877ZM70.1979 3.75504H64.473L63.2023 11.2255H69.0327L69.358 9.30404H65.6558L65.8097 8.38067H69.1866L69.4899 6.59989H66.1131L66.2757 5.66773H69.8725L70.1979 3.75504ZM70.9365 5.43465H72.88L72.8712 5.92271H72.8932C73.3813 5.42585 73.9441 5.24997 74.7927 5.24997C75.7732 5.24997 76.5647 5.88754 76.336 7.21543L75.6545 11.2211H73.5703L74.0892 8.16518C74.2079 7.49244 74.2079 7.02196 73.5967 7.02196C73.2362 7.02196 72.6953 7.38251 72.5414 8.31467L72.0446 11.2211H69.956L70.9365 5.43025V5.43465ZM81.164 5.43463H80.0471L80.3813 3.46917L78.0685 4.78827L77.9586 5.43463H77.233L76.9824 6.92081H77.7079L77.2726 9.45787C77 11.0672 77.9366 11.3618 78.8248 11.3618C79.2821 11.3618 79.7657 11.3046 80.1922 11.1859L80.4341 9.74367C80.2714 9.79204 80.1087 9.80963 79.946 9.80963C79.414 9.80963 79.348 9.5634 79.4359 9.02696L79.7965 6.92081H80.9133L81.164 5.43463ZM86.4359 9.33038C85.8599 10.9661 84.8091 11.3618 83.4064 11.3618C81.7312 11.3618 80.6231 10.7814 81.0408 8.31467C81.4234 6.06342 82.782 5.24997 84.4397 5.24997C86.0974 5.24997 87.0383 6.15575 86.6998 8.31467C86.6646 8.50814 86.6118 8.74118 86.5678 8.91706H82.8612C82.8524 9.57221 83.1206 9.84922 83.7186 9.84922C84.0879 9.84922 84.4661 9.69093 84.5672 9.33038H86.4359ZM87.895 5.43468H87.8913L87.8957 5.43029L87.895 5.43468ZM87.895 5.43468H89.8216L89.7864 6.08104H89.8084C90.1646 5.65453 90.6658 5.28518 91.4837 5.28518C91.6991 5.28518 91.8882 5.32036 92.0817 5.37752L91.7563 7.32539C91.5584 7.24184 91.3781 7.17589 90.9604 7.17589C90.1162 7.17589 89.6018 7.67275 89.3863 8.93908L89.0038 11.2211H86.9152L87.895 5.43468ZM95.419 7.23741L95.4196 7.23302H97.3053C97.4548 5.61053 96.1884 5.24997 95.0452 5.24997C93.968 5.24997 92.4598 5.52698 92.196 7.1055C92.0245 8.10362 92.6533 8.63126 94.1526 8.94344C95.076 9.12812 95.2299 9.22925 95.1859 9.49746C95.1376 9.79206 94.7902 9.89319 94.434 9.89319C94.0119 9.89319 93.7173 9.75688 93.7921 9.23804H91.7959C91.5188 10.9661 92.8247 11.3618 94.1175 11.3618C95.4102 11.3618 96.9007 11.01 97.1909 9.304C97.3536 8.34545 96.7425 8.02447 96.0829 7.78264C95.7497 7.6649 95.3974 7.59318 95.0901 7.53062C94.7892 7.46935 94.5313 7.41686 94.3769 7.33854C94.2802 7.29018 94.1746 7.20663 94.2054 7.07033C94.2582 6.74935 94.5528 6.6746 94.8649 6.6746C95.1761 6.6746 95.4829 6.78381 95.4196 7.23302H95.4146L95.419 7.23741ZM83.0898 7.60676H84.9278C84.9278 7.08791 84.7299 6.85048 84.1759 6.85048C83.6219 6.85048 83.2877 7.04394 83.0898 7.60676Z" fill="#231916"/>
</g>
<defs>
<clipPath id="clip0_4295_372">
<rect width="106.359" height="28" fill="white"/>
</clipPath>
</defs>
</svg>
